<svg width="10" height="17" viewBox="0 0 10 17" fill="none" xmlns="http://www.w3.org/2000/svg">
<path d="M0.801281 1.22619C0.673813 1.3534 0.572685 1.50449 0.503686 1.67083C0.434686 1.83717 0.39917 2.01548 0.39917 2.19556C0.39917 2.37565 0.434686 2.55396 0.503686 2.7203C0.572685 2.88664 0.673813 3.03773 0.801281 3.16494L6.13628 8.49994L0.801281 13.8349C0.544187 14.092 0.399752 14.4407 0.399752 14.8043C0.399752 15.1679 0.544187 15.5166 0.801281 15.7737C1.05838 16.0308 1.40707 16.1752 1.77066 16.1752C2.13424 16.1752 2.48294 16.0308 2.74003 15.7737L9.05128 9.46244C9.17875 9.33523 9.27988 9.18414 9.34888 9.0178C9.41788 8.85146 9.45339 8.67314 9.45339 8.49306C9.45339 8.31298 9.41788 8.13467 9.34888 7.96833C9.27988 7.80199 9.17875 7.65089 9.05128 7.52369L2.74003 1.21244C2.21753 0.689938 1.33753 0.689939 0.801281 1.22619Z" fill="black"/>
</svg>
